<svg width="200" height="200" viewBox="0 0 200 200" fill="none" xmlns="http://www.w3.org/2000/svg">
<path d="M0 0L200 0V200H0L0 0Z" fill="#59B56D"/>
<path fill-rule="evenodd" clip-rule="evenodd" d="M100 136C119.883 136 136 119.882 136 100C136 80.1178 119.883 64 100 64C80.1182 64 64.0005 80.1178 64.0005 100C64.0005 119.882 80.1182 136 100 136ZM100 180C144.183 180 180 144.183 180 100C180 55.8173 144.183 20 100 20C55.8177 20 20.0005 55.8173 20.0005 100C20.0005 144.183 55.8177 180 100 180Z" fill="#F3FF69"/>
<path fill-rule="evenodd" clip-rule="evenodd" d="M100.065 107.398C104.115 107.398 107.398 104.114 107.398 100.064C107.398 96.0141 104.115 92.7308 100.065 92.7308C96.0147 92.7308 92.7314 96.0141 92.7314 100.064C92.7314 104.114 96.0147 107.398 100.065 107.398ZM100.065 123.398C112.951 123.398 123.398 112.951 123.398 100.064C123.398 87.1775 112.951 76.7308 100.065 76.7308C87.1781 76.7308 76.7314 87.1775 76.7314 100.064C76.7314 112.951 87.1781 123.398 100.065 123.398Z" fill="#F3FF69"/>
</svg>
