<svg width="36" height="36" viewBox="0 0 36 36" fill="none" xmlns="http://www.w3.org/2000/svg">
<path fill-rule="evenodd" clip-rule="evenodd" d="M28.8697 30.6976C25.9472 33.2016 22.1503 34.7143 18 34.7143C13.8498 34.7143 10.053 33.2017 7.13056 30.6977C8.54501 26.036 12.8763 22.6429 18.0001 22.6429C23.1239 22.6429 27.4551 26.0359 28.8697 30.6976ZM29.9046 29.7324C28.4266 25.6101 24.8683 22.4786 20.495 21.6033C23.6916 20.555 26.0001 17.5471 26.0001 14C26.0001 9.58175 22.4184 6.00003 18.0001 6.00003C13.5818 6.00003 10.0001 9.58175 10.0001 14C10.0001 17.5471 12.3086 20.555 15.5052 21.6033C11.1319 22.4786 7.57357 25.6102 6.09562 29.7326C3.12127 26.7149 1.28571 22.5718 1.28571 18C1.28571 8.76895 8.76895 1.28571 18 1.28571C27.231 1.28571 34.7143 8.76895 34.7143 18C34.7143 22.5717 32.8788 26.7147 29.9046 29.7324ZM30.3153 31.1277C33.8143 27.8439 36 23.1772 36 18C36 8.05887 27.9411 0 18 0C8.05887 0 0 8.05887 0 18C0 27.9411 8.05887 36 18 36C22.2328 36 26.1244 34.5389 29.198 32.0936C29.198 32.0936 29.198 32.0937 29.198 32.0937C29.5836 31.7869 29.9564 31.4646 30.3153 31.1277C30.3153 31.1277 30.3153 31.1277 30.3153 31.1277ZM24.7144 14C24.7144 17.7082 21.7083 20.7143 18.0001 20.7143C14.2919 20.7143 11.2858 17.7082 11.2858 14C11.2858 10.2918 14.2919 7.28574 18.0001 7.28574C21.7083 7.28574 24.7144 10.2918 24.7144 14Z" fill="white"/>
</svg>
