<svg width="200" height="200" viewBox="0 0 200 200" fill="none" xmlns="http://www.w3.org/2000/svg">
<path d="M0 0L200 0V200H0L0 0Z" fill="#D6856C"/>
<path fill-rule="evenodd" clip-rule="evenodd" d="M100 136C119.882 136 136 119.882 136 100C136 80.1177 119.882 64 100 64C80.1177 64 64 80.1177 64 100C64 119.882 80.1177 136 100 136ZM100 180C144.183 180 180 144.183 180 100C180 55.8172 144.183 20 100 20C55.8172 20 20 55.8172 20 100C20 144.183 55.8172 180 100 180Z" fill="#3C24CE"/>
<path fill-rule="evenodd" clip-rule="evenodd" d="M100.064 107.397C104.114 107.397 107.397 104.114 107.397 100.064C107.397 96.014 104.114 92.7308 100.064 92.7308C96.0137 92.7308 92.7305 96.014 92.7305 100.064C92.7305 104.114 96.0137 107.397 100.064 107.397ZM100.064 123.397C112.95 123.397 123.397 112.951 123.397 100.064C123.397 87.1775 112.95 76.7308 100.064 76.7308C87.1772 76.7308 76.7305 87.1775 76.7305 100.064C76.7305 112.951 87.1772 123.397 100.064 123.397Z" fill="#3C24CE"/>
</svg>
